<svg width="24" height="24" viewBox="0 0 24 24" fill="none" xmlns="http://www.w3.org/2000/svg">
<path d="M14.3 12.1788C14.2767 12.1556 14.2582 12.128 14.2456 12.0976C14.233 12.0672 14.2266 12.0347 14.2266 12.0018C14.2266 11.9689 14.233 11.9364 14.2456 11.906C14.2582 11.8756 14.2767 11.848 14.3 11.8248L23.563 2.5628C23.8443 2.28114 24.0021 1.89928 24.0018 1.50124C24.0016 1.10319 23.8432 0.721561 23.5615 0.440299C23.2798 0.159037 22.898 0.00118392 22.4999 0.00146522C22.1019 0.00174652 21.7203 0.160139 21.439 0.441799L12.177 9.6998C12.1538 9.72308 12.1262 9.74155 12.0958 9.75416C12.0654 9.76676 12.0329 9.77325 12 9.77325C11.9671 9.77325 11.9346 9.76676 11.9042 9.75416C11.8738 9.74155 11.8462 9.72308 11.823 9.6998L2.561 0.441799C2.42173 0.302467 2.25638 0.191929 2.0744 0.116498C1.89241 0.0410666 1.69735 0.00221873 1.50035 0.0021723C1.10249 0.00207854 0.720892 0.160037 0.439497 0.441299C0.158103 0.722561 -3.58898e-05 1.10409 -0.000129658 1.50195C-0.000223426 1.8998 0.157735 2.2814 0.438997 2.5628L9.7 11.8248C9.72328 11.848 9.74175 11.8756 9.75435 11.906C9.76696 11.9364 9.77344 11.9689 9.77344 12.0018C9.77344 12.0347 9.76696 12.0672 9.75435 12.0976C9.74175 12.128 9.72328 12.1556 9.7 12.1788L0.438997 21.4418C0.299731 21.5811 0.189271 21.7465 0.113925 21.9286C0.0385799 22.1106 -0.000176087 22.3057 -0.000129658 22.5027C-3.58898e-05 22.9005 0.158103 23.282 0.439497 23.5633C0.57883 23.7026 0.744229 23.813 0.92625 23.8884C1.10827 23.9637 1.30335 24.0025 1.50035 24.0024C1.89821 24.0023 2.27974 23.8442 2.561 23.5628L11.823 14.2998C11.8462 14.2765 11.8738 14.258 11.9042 14.2454C11.9346 14.2328 11.9671 14.2264 12 14.2264C12.0329 14.2264 12.0654 14.2328 12.0958 14.2454C12.1262 14.258 12.1538 14.2765 12.177 14.2998L21.439 23.5628C21.7203 23.8442 22.1018 24.0023 22.4996 24.0024C22.8975 24.0025 23.2791 23.8446 23.5605 23.5633C23.8419 23.282 24 22.9005 24.0001 22.5027C24.0002 22.1048 23.8423 21.7232 23.561 21.4418L14.3 12.1788Z" fill="white"/>
</svg>
