<svg width="21" height="21" viewBox="0 0 21 21" fill="none" xmlns="http://www.w3.org/2000/svg">
<path d="M20.16 0H0.84C0.375375 0 0 0.375375 0 0.84V20.16C0 20.6246 0.375375 21 0.84 21H20.16C20.6246 21 21 20.6246 21 20.16V0.84C21 0.375375 20.6246 0 20.16 0ZM17.7345 6.12937H16.0571C14.742 6.12937 14.4874 6.75412 14.4874 7.67287V9.69675H17.6269L17.2174 12.8651H14.4874V21H11.214V12.8678H8.47612V9.69675H11.214V7.3605C11.214 4.64887 12.8704 3.171 15.2906 3.171C16.4509 3.171 17.4457 3.25763 17.7371 3.297V6.12937H17.7345Z" fill="#252B42"/>
</svg>
