<svg width="73" height="72" viewBox="0 0 73 72" fill="none" xmlns="http://www.w3.org/2000/svg">
<rect x="0.5" width="72" height="72" rx="36" fill="white"/>
<g clip-path="url(#clip0)">
<path d="M30.0209 32.1725C29.8381 31.9897 29.5409 31.9897 29.3582 32.1725C29.1749 32.3558 29.1749 32.6525 29.3582 32.8353C29.541 33.0186 29.8382 33.0186 30.0209 32.8353C30.2042 32.6525 30.2042 32.3558 30.0209 32.1725Z" fill="#784F33"/>
<path d="M36.3687 44.9867C36.5754 44.7067 36.6871 44.3695 36.6871 44.0148C36.6871 43.1103 35.9511 42.3743 35.0465 42.3743H27.078C26.6396 42.3743 26.2276 42.5449 25.9179 42.8547C25.6081 43.1644 25.4375 43.5764 25.4375 44.0148C25.4375 44.3781 25.5563 44.714 25.7569 44.9861C25.0105 45.3785 24.5 46.1613 24.5 47.0616V47.5303C24.5 47.7892 24.7099 47.9991 24.9688 47.9991H37.1558C37.4146 47.9991 37.6245 47.7892 37.6245 47.5303V47.0616C37.6245 46.1618 37.1145 45.3793 36.3687 44.9867ZM26.5808 43.5175C26.7135 43.3848 26.8901 43.3117 27.078 43.3117H35.0465C35.4342 43.3117 35.7496 43.6271 35.7496 44.0148C35.7496 44.2027 35.6765 44.3793 35.5437 44.512C35.411 44.6448 35.2344 44.7179 35.0465 44.7179H27.078C26.6903 44.7179 26.375 44.4025 26.375 44.0148C26.375 43.8269 26.448 43.6503 26.5808 43.5175ZM25.4375 47.0616C25.4375 46.2862 26.0683 45.6554 26.8437 45.6554H27.078H35.0465H35.2809C36.0562 45.6554 36.6871 46.2862 36.6871 47.0616H25.4375Z" fill="#784F33"/>
<path d="M48.0667 43.6933C47.9075 43.4466 47.7175 43.2284 47.502 43.0448L45.3118 41.1345C45.2947 41.1089 45.275 41.0845 45.2523 41.0618C45.2143 41.0238 45.1711 40.9942 45.1253 40.9719L43.8007 39.8167L37.67 34.4687C37.9209 34.2063 38.0591 33.8632 38.0591 33.4984C38.0591 33.1226 37.9128 32.7694 37.6469 32.5035C37.5309 32.3877 37.3991 32.2966 37.2583 32.2299L37.8255 31.6627C37.984 31.7048 38.1469 31.7264 38.3099 31.7264C38.79 31.7264 39.27 31.5436 39.6355 31.1782C39.9898 30.824 40.1849 30.3531 40.1849 29.8523C40.1849 29.3516 39.9898 28.8807 39.6355 28.5265L35.6583 24.5493C35.304 24.1951 34.8331 24 34.3322 24C33.8316 24 33.3608 24.1951 33.0066 24.5493C32.517 25.0389 32.3559 25.734 32.5221 26.3594L26.8631 32.0183C26.7067 31.9768 26.544 31.9548 26.3778 31.9548C25.8768 31.9548 25.4062 32.1498 25.0522 32.5037C24.3211 33.2347 24.3211 34.4243 25.0522 35.1554L29.0294 39.1327C29.395 39.4982 29.8751 39.681 30.3553 39.681C30.8355 39.681 31.3156 39.4982 31.6812 39.1327C32.1707 38.643 32.3319 37.948 32.1657 37.3226L32.7317 36.7565C32.7997 36.8985 32.892 37.0296 33.0067 37.1442C33.2722 37.4098 33.6254 37.5561 34.0011 37.5561C34.3656 37.5561 34.7085 37.4182 34.9712 37.1675L41.5012 44.67C41.5192 44.6981 41.5402 44.7249 41.5648 44.7495C41.5732 44.7578 41.5821 44.7655 41.5909 44.7731L43.5367 47.0087C43.5851 47.0658 43.6368 47.122 43.6905 47.1757C44.2249 47.7099 44.9308 47.9998 45.6719 47.9998C45.8025 47.9998 45.9344 47.9908 46.0665 47.9725C46.9491 47.8504 47.7119 47.3224 48.1591 46.5237C48.6491 45.6484 48.6127 44.5372 48.0667 43.6933ZM33.6696 25.2122C33.8467 25.0351 34.0821 24.9375 34.3323 24.9375C34.5828 24.9375 34.8183 25.0351 34.9954 25.2122L38.9727 29.1894C39.1498 29.3666 39.2474 29.602 39.2474 29.8524C39.2474 30.1027 39.1498 30.3382 38.9726 30.5153C38.6072 30.8808 38.0126 30.8808 37.6472 30.5153L33.6698 26.538C33.6697 26.5379 33.6697 26.5378 33.6696 26.5377C33.3041 26.1723 33.3041 25.5777 33.6696 25.2122ZM31.0183 38.4697C30.6527 38.8353 30.0578 38.8353 29.6923 38.4697L25.7151 34.4925C25.3495 34.127 25.3495 33.5322 25.7151 33.1666C25.8919 32.9897 26.1273 32.8923 26.3778 32.8923C26.6283 32.8923 26.8635 32.9897 27.0403 33.1664L31.0182 37.1443C31.3837 37.5097 31.3837 38.1044 31.0183 38.4697ZM32.9918 35.1707L31.6811 36.4814L27.7035 32.5038L33.0066 27.2006L36.9842 31.1782L35.6711 32.4913C35.6669 32.4953 35.6627 32.4993 35.6582 32.5037L33.008 35.154C33.0025 35.1594 32.9972 35.165 32.9918 35.1707ZM34.6655 36.1485C34.6646 36.1495 34.6637 36.1504 34.6627 36.1513L34.3327 36.4814C34.2441 36.5699 34.1264 36.6187 34.0011 36.6187C33.8758 36.6187 33.758 36.5699 33.6695 36.4814C33.5809 36.3928 33.5321 36.2749 33.5321 36.1495C33.5321 36.0268 33.5789 35.9114 33.6639 35.8243L36.3264 33.1617C36.5089 32.9843 36.804 32.9865 36.9843 33.1666C37.0729 33.2552 37.1217 33.373 37.1217 33.4984C37.1217 33.6237 37.073 33.7412 36.9842 33.8298L36.6561 34.158C36.6538 34.1602 36.6516 34.1624 36.6494 34.1647L34.6655 36.1485ZM35.6362 36.5036L37.0062 35.1337L42.8066 40.1931L40.69 42.3097L35.6362 36.5036ZM41.3069 43.0186L43.5147 40.8108L44.2228 41.4285L41.9238 43.7275L41.3069 43.0186ZM47.3412 46.0658C47.0387 46.6059 46.5272 46.9624 45.938 47.0439C45.3501 47.1253 44.7724 46.9317 44.3533 46.5127C44.3172 46.4767 44.2827 46.4392 44.2506 46.4011C44.2491 46.3993 44.2476 46.3975 44.246 46.3958L42.5407 44.4363L44.9309 42.0461L46.8879 43.7531C46.8894 43.7544 46.8909 43.7557 46.8924 43.757C47.0389 43.8816 47.1689 44.0311 47.2792 44.202C47.6337 44.7498 47.6585 45.4988 47.3412 46.0658Z" fill="#784F33"/>
<path d="M33.3359 28.8577C33.1528 28.6747 32.8561 28.6747 32.673 28.8577L30.6842 30.8466C30.5011 31.0296 30.5011 31.3264 30.6842 31.5094C30.7757 31.601 30.8957 31.6467 31.0156 31.6467C31.1356 31.6467 31.2555 31.6009 31.3471 31.5094L33.3359 29.5206C33.5189 29.3376 33.5189 29.0408 33.3359 28.8577Z" fill="#784F33"/>
</g>
<defs>
<clipPath id="clip0">
<rect width="24" height="24" fill="white" transform="translate(24.5 24)"/>
</clipPath>
</defs>
</svg>
