<svg width="20" height="21" viewBox="0 0 20 21" fill="none" xmlns="http://www.w3.org/2000/svg">
<path d="M9.99731 5.11248C7.15795 5.11248 4.86644 7.51861 4.86644 10.5C4.86644 13.4814 7.15795 15.8875 9.99731 15.8875C12.8367 15.8875 15.1282 13.4814 15.1282 10.5C15.1282 7.51861 12.8367 5.11248 9.99731 5.11248ZM9.99731 14.0015C8.16111 14.0015 6.66262 12.4281 6.66262 10.5C6.66262 8.57195 8.16111 6.99851 9.99731 6.99851C11.8335 6.99851 13.332 8.57195 13.332 10.5C13.332 12.4281 11.8335 14.0015 9.99731 14.0015ZM15.3383 3.63624C14.6754 3.63624 14.14 4.19837 14.14 4.89446C14.14 5.59056 14.6754 6.15269 15.3383 6.15269C16.0013 6.15269 16.5366 5.59318 16.5366 4.89446C16.5368 4.72917 16.5059 4.56546 16.4458 4.41272C16.3856 4.25997 16.2974 4.12118 16.1861 4.0043C16.0748 3.88742 15.9426 3.79475 15.7971 3.73159C15.6516 3.66843 15.4957 3.63603 15.3383 3.63624ZM19.9989 10.5C19.9989 9.05002 20.0114 7.61317 19.9338 6.16582C19.8563 4.48469 19.4911 2.99268 18.3203 1.76335C17.147 0.53139 15.7286 0.150507 14.1275 0.0690774C12.7466 -0.0123526 11.3782 0.000781319 9.99981 0.000781319C8.61891 0.000781319 7.25051 -0.0123526 5.8721 0.0690774C4.27105 0.150507 2.85012 0.534016 1.67935 1.76335C0.506076 2.9953 0.143338 4.48469 0.0657868 6.16582C-0.0117642 7.6158 0.000744099 9.05265 0.000744099 10.5C0.000744099 11.9474 -0.0117642 13.3868 0.0657868 14.8342C0.143338 16.5153 0.508578 18.0073 1.67935 19.2367C2.85262 20.4686 4.27105 20.8495 5.8721 20.9309C7.25301 21.0124 8.62141 20.9992 9.99981 20.9992C11.3807 20.9992 12.7491 21.0124 14.1275 20.9309C15.7286 20.8495 17.1495 20.466 18.3203 19.2367C19.4936 18.0047 19.8563 16.5153 19.9338 14.8342C20.0139 13.3868 19.9989 11.95 19.9989 10.5ZM17.7974 16.6939C17.6148 17.172 17.3947 17.5292 17.0419 17.897C16.6892 18.2674 16.3515 18.4985 15.8962 18.6903C14.5803 19.2393 11.4558 19.1158 9.99731 19.1158C8.53885 19.1158 5.4118 19.2393 4.09593 18.6929C3.64064 18.5012 3.30041 18.27 2.95018 17.8996C2.59745 17.5292 2.37731 17.1746 2.19469 16.6966C1.67434 15.3123 1.79192 12.0314 1.79192 10.5C1.79192 8.96859 1.67434 5.68512 2.19469 4.30344C2.37731 3.82537 2.59745 3.46812 2.95018 3.10038C3.30291 2.73263 3.64064 2.49884 4.09593 2.30709C5.4118 1.76072 8.53885 1.88418 9.99731 1.88418C11.4558 1.88418 14.5828 1.76072 15.8987 2.30709C16.354 2.49884 16.6942 2.73 17.0444 3.10038C17.3972 3.47075 17.6173 3.82537 17.7999 4.30344C18.3203 5.68512 18.2027 8.96859 18.2027 10.5C18.2027 12.0314 18.3203 15.3123 17.7974 16.6939Z" fill="#252B42"/>
</svg>
