<svg width="19" height="20" viewBox="0 0 19 20" fill="none" xmlns="http://www.w3.org/2000/svg">
<path d="M18.6301 7.41256C18.5724 7.24274 18.4663 7.09353 18.3248 6.98335C18.1833 6.87316 18.0127 6.80681 17.8339 6.79251L12.6048 6.377L10.342 1.36798C10.2699 1.20665 10.1527 1.06963 10.0045 0.973442C9.85623 0.877257 9.68334 0.826025 9.50665 0.825928C9.32995 0.825831 9.15701 0.876874 9.00868 0.972896C8.86036 1.06892 8.74299 1.20582 8.67075 1.36707L6.40793 6.377L1.17878 6.79251C1.00309 6.80642 0.835128 6.87066 0.694991 6.97754C0.554853 7.08442 0.448473 7.2294 0.388578 7.39516C0.328682 7.56091 0.317808 7.74041 0.357256 7.91218C0.396703 8.08395 0.484802 8.24072 0.611013 8.36373L4.47532 12.1308L3.10864 18.0488C3.06714 18.2279 3.08044 18.4154 3.14682 18.5869C3.21319 18.7584 3.32957 18.9059 3.48086 19.0105C3.63214 19.115 3.81135 19.1716 3.99523 19.173C4.1791 19.1744 4.35915 19.1205 4.51201 19.0183L9.50635 15.6888L14.5007 19.0183C14.6569 19.1221 14.8412 19.1755 15.0287 19.1713C15.2162 19.1672 15.3979 19.1058 15.5494 18.9953C15.701 18.8848 15.8151 18.7306 15.8763 18.5533C15.9376 18.3761 15.9431 18.1843 15.8921 18.0039L14.2145 12.1336L18.3751 8.38941C18.6475 8.14359 18.7475 7.76019 18.6301 7.41256Z" fill="#F3CD03"/>
</svg>
