<svg width="19" height="20" viewBox="0 0 19 20" fill="none" xmlns="http://www.w3.org/2000/svg">
<path d="M4.53288 12.1308L3.1662 18.0488C3.12388 18.228 3.13658 18.4158 3.20265 18.5877C3.26872 18.7596 3.38509 18.9075 3.53655 19.0122C3.68801 19.1169 3.86753 19.1735 4.05165 19.1746C4.23578 19.1757 4.41596 19.1212 4.56865 19.0183L9.56299 15.6888L14.5573 19.0183C14.7136 19.1221 14.8978 19.1755 15.0853 19.1714C15.2728 19.1673 15.4546 19.1058 15.6061 18.9953C15.7576 18.8849 15.8717 18.7306 15.933 18.5534C15.9942 18.3761 15.9997 18.1844 15.9488 18.0039L14.2712 12.1336L18.4317 8.38944C18.565 8.26946 18.6601 8.11304 18.7054 7.93955C18.7507 7.76605 18.7442 7.58308 18.6866 7.41327C18.629 7.24345 18.523 7.09424 18.3815 6.98408C18.24 6.87392 18.0693 6.80764 17.8906 6.79345L12.6614 6.37703L10.3986 1.36801C10.3264 1.20672 10.2091 1.06976 10.0609 0.973657C9.9126 0.877554 9.73968 0.826416 9.56299 0.826416C9.3863 0.826416 9.21338 0.877554 9.06511 0.973657C8.91683 1.06976 8.79954 1.20672 8.72739 1.36801L6.46457 6.37703L1.23542 6.79254C1.05973 6.80645 0.891769 6.87069 0.751631 6.97757C0.611493 7.08445 0.505113 7.22943 0.445218 7.39518C0.385323 7.56094 0.374449 7.74044 0.413896 7.91221C0.453344 8.08398 0.541443 8.24074 0.667654 8.36376L4.53288 12.1308ZM7.14975 8.16288C7.31347 8.14998 7.47071 8.09328 7.60497 7.99871C7.73924 7.90414 7.8456 7.77519 7.91289 7.62538L9.56299 3.97387L11.2131 7.62538C11.2804 7.77519 11.3867 7.90414 11.521 7.99871C11.6553 8.09328 11.8125 8.14998 11.9762 8.16288L15.6195 8.45181L12.6192 11.1521C12.3587 11.387 12.2551 11.7484 12.3505 12.0859L13.4998 16.108L10.073 13.8231C9.92256 13.7222 9.74551 13.6683 9.56437 13.6683C9.38322 13.6683 9.20617 13.7222 9.05576 13.8231L5.47488 16.2107L6.43797 12.0409C6.47329 11.8876 6.46855 11.7277 6.42421 11.5767C6.37988 11.4257 6.29744 11.2887 6.18482 11.1787L3.39826 8.4619L7.14975 8.16288Z" fill="#F3CD03"/>
</svg>
