<svg width="21" height="17" viewBox="0 0 21 17" fill="none" xmlns="http://www.w3.org/2000/svg">
<path d="M21 2.01939C20.2277 2.35134 19.3873 2.59025 18.5217 2.68329C19.4204 2.15125 20.0934 1.31072 20.4145 0.319389C19.5711 0.819302 18.6473 1.16985 17.6838 1.35548C17.2811 0.926526 16.7941 0.5848 16.2531 0.351597C15.7121 0.118394 15.1287 -0.00128703 14.5392 1.04374e-05C12.1543 1.04374e-05 10.2363 1.92634 10.2363 4.29024C10.2363 4.6222 10.2767 4.95415 10.3423 5.27353C6.77118 5.08743 3.58623 3.38743 1.46881 0.784625C1.083 1.44128 0.880818 2.18895 0.883307 2.94986C0.883307 4.43862 1.64295 5.75134 2.80135 6.52338C2.11869 6.49659 1.45201 6.30962 0.855546 5.97767V6.03048C0.855546 8.11524 2.33446 9.8429 4.30549 10.2402C3.93541 10.336 3.5547 10.385 3.17234 10.3861C2.8922 10.3861 2.62721 10.3584 2.35969 10.3207C2.90482 12.0207 4.49225 13.2555 6.38253 13.2957C4.90362 14.45 3.0512 15.129 1.03978 15.129C0.678885 15.129 0.345752 15.1164 0 15.0762C1.90794 16.2959 4.17173 17 6.60966 17C14.5241 17 18.8548 10.4666 18.8548 4.79572C18.8548 4.60962 18.8548 4.42353 18.8422 4.23743C19.6801 3.62634 20.4145 2.86939 21 2.01939Z" fill="#252B42"/>
</svg>
