<svg width="25" height="20" viewBox="0 0 25 20" fill="none" xmlns="http://www.w3.org/2000/svg">
<path d="M24.5014 2.46548C23.6198 2.85141 22.6603 3.12917 21.6721 3.23735C22.6981 2.61879 23.4665 1.64156 23.833 0.489007C22.8702 1.07022 21.8155 1.47778 20.7156 1.6936C20.2559 1.19488 19.6999 0.797581 19.0823 0.526453C18.4646 0.255325 17.7986 0.116179 17.1257 0.117688C14.403 0.117688 12.2133 2.3573 12.2133 5.10564C12.2133 5.49158 12.2594 5.87752 12.3343 6.24884C8.25747 6.03248 4.62146 4.05601 2.20417 1.0299C1.76372 1.79335 1.5329 2.66261 1.53575 3.54727C1.53575 5.27814 2.40297 6.80435 3.72542 7.70195C2.94608 7.6708 2.18499 7.45342 1.50405 7.06749V7.12889C1.50405 9.5527 3.19241 11.5613 5.44259 12.0233C5.02009 12.1347 4.58547 12.1916 4.14895 12.1929C3.82914 12.1929 3.52662 12.1607 3.22122 12.1168C3.84355 14.0933 5.65579 15.5289 7.81378 15.5757C6.12542 16.9177 4.01066 17.7071 1.71438 17.7071C1.30237 17.7071 0.922061 17.6925 0.527344 17.6457C2.70549 19.0637 5.28989 19.8824 8.07308 19.8824C17.1084 19.8824 22.0524 12.2864 22.0524 5.69332C22.0524 5.47696 22.0524 5.2606 22.038 5.04424C22.9946 4.33377 23.833 3.45371 24.5014 2.46548Z" fill="#DBB468"/>
</svg>
