<svg width="25" height="18" viewBox="0 0 25 18" fill="none" xmlns="http://www.w3.org/2000/svg">
<path d="M23.9699 2.93173C23.8335 2.39876 23.5663 1.91283 23.1951 1.52255C22.824 1.13228 22.3619 0.851352 21.855 0.707895C19.9884 0.176697 12.4879 0.176697 12.4879 0.176697C12.4879 0.176697 4.98729 0.176697 3.12071 0.707895C2.61385 0.851352 2.15172 1.13228 1.78057 1.52255C1.40941 1.91283 1.14225 2.39876 1.00582 2.93173C0.657288 4.93341 0.488155 6.96507 0.500644 8.99999C0.488155 11.0349 0.657288 13.0666 1.00582 15.0683C1.14225 15.6012 1.40941 16.0872 1.78057 16.4774C2.15172 16.8677 2.61385 17.1486 3.12071 17.2921C4.98729 17.8233 12.4879 17.8233 12.4879 17.8233C12.4879 17.8233 19.9884 17.8233 21.855 17.2921C22.3619 17.1486 22.824 16.8677 23.1951 16.4774C23.5663 16.0872 23.8335 15.6012 23.9699 15.0683C24.3184 13.0666 24.4876 11.0349 24.4751 8.99999C24.4876 6.96507 24.3184 4.93341 23.9699 2.93173ZM10.0904 12.7814V5.21858L16.3152 8.99999L10.0904 12.7814Z" fill="#DBB468"/>
</svg>
